<?xml version="1.0" standalone="no"?>
<!DOCTYPE svg PUBLIC "-//W3C//DTD SVG 20010904//EN"
 "http://www.w3.org/TR/2001/REC-SVG-20010904/DTD/svg10.dtd">
<svg version="1.0" xmlns="http://www.w3.org/2000/svg"
 width="700.000000pt" height="700.000000pt" viewBox="0 0 700.000000 700.000000"
 preserveAspectRatio="xMidYMid meet">
<metadata>
Created by potrace 1.14, written by Peter Selinger 2001-2017
</metadata>
<g transform="translate(0.000000,700.000000) scale(0.100000,-0.100000)"
fill="#000000" stroke="none">
<path d="M799 6114 c-164 -49 -252 -218 -198 -382 32 -99 147 -182 264 -191 7
-1 10 -550 11 -1623 0 -893 3 -1645 7 -1673 30 -242 258 -464 502 -490 22 -2
348 -4 725 -4 l684 -1 -355 -358 c-396 -397 -394 -395 -393 -522 1 -151 114
-272 265 -283 61 -5 139 15 184 46 17 12 249 240 518 508 l487 487 498 -498
c282 -281 513 -504 533 -513 210 -98 439 51 424 277 -7 109 -18 123 -398 504
l-352 352 703 0 c386 0 703 0 705 0 1 0 35 9 75 20 210 58 361 210 418 421 16
59 17 182 18 1706 l1 1642 40 7 c237 38 333 319 167 490 -19 20 -61 48 -91 63
l-56 25 -2674 1 c-1968 0 -2683 -3 -2712 -11z m4741 -744 c0 -93 1 -802 1
-1575 0 -773 -1 -1418 -1 -1433 l0 -28 -2040 0 -2040 0 0 20 c-1 25 -1 3119 0
3159 l0 27 2040 0 2040 0 0 -170z"/>
<path d="M4585 4946 c-98 -30 -169 -103 -197 -201 -12 -41 -14 -181 -13 -815
1 -552 5 -776 13 -806 24 -85 113 -173 196 -195 164 -44 333 55 365 216 7 32
10 333 8 820 -2 759 -2 771 -23 816 -62 134 -215 206 -349 165z"/>
<path d="M3440 4365 c-97 -21 -156 -66 -202 -155 l-23 -45 0 -520 0 -520 30
-54 c75 -136 240 -192 377 -127 56 27 102 71 133 127 l30 54 3 490 c4 527 1
561 -46 630 -70 100 -184 146 -302 120z"/>
<path d="M2237 3775 c-75 -28 -131 -79 -169 -155 -21 -42 -23 -59 -24 -250 -2
-221 3 -256 53 -331 30 -46 101 -95 157 -110 159 -43 320 50 360 209 16 61 14
392 -3 449 -24 85 -112 171 -198 192 -56 15 -130 13 -176 -4z"/>
</g>
</svg>
